<svg width="40" height="40" viewBox="0 0 40 40" fill="none" xmlns="http://www.w3.org/2000/svg">
<g clip-path="url(#clip0_5_1670)">
<path d="M32.6692 9.58337H4.34888C3.748 9.58337 3.17173 9.81904 2.74684 10.2385C2.32195 10.658 2.08325 11.227 2.08325 11.8202L2.08325 25.2413C2.08325 25.8345 2.32195 26.4035 2.74684 26.823C3.17173 27.2424 3.748 27.4781 4.34888 27.4781H5.48169V25.2413H4.34888V11.8202H32.6692V25.2413H7.74731V27.4781H32.6692C33.2701 27.4781 33.8463 27.2424 34.2712 26.823C34.6961 26.4035 34.9348 25.8345 34.9348 25.2413V11.8202C34.9348 11.227 34.6961 10.658 34.2712 10.2385C33.8463 9.81904 33.2701 9.58337 32.6692 9.58337Z" fill="#E33E5A"/>
<path d="M36.0676 12.9386H34.9348V15.1754H36.0676V28.5965H7.74731V15.1754H32.6692V12.9386H7.74731C7.14643 12.9386 6.57016 13.1743 6.14528 13.5938C5.72039 14.0132 5.48169 14.5822 5.48169 15.1754V28.5965C5.48169 29.1897 5.72039 29.7587 6.14528 30.1782C6.57016 30.5977 7.14643 30.8333 7.74731 30.8333H36.0676C36.6685 30.8333 37.2448 30.5977 37.6697 30.1782C38.0946 29.7587 38.3333 29.1897 38.3333 28.5965V15.1754C38.3333 14.5822 38.0946 14.0132 37.6697 13.5938C37.2448 13.1743 36.6685 12.9386 36.0676 12.9386Z" fill="#3C2E88"/>
<path d="M21.9572 20.1905C21.6378 19.7253 21.0963 19.4322 20.3441 19.3137C20.1155 19.3025 19.8972 19.2168 19.7233 19.0699C19.7233 19.0699 19.6984 19.0341 19.7233 18.9513C19.7437 18.8328 19.7777 18.8171 19.8434 18.7947C20.0128 18.7619 20.1872 18.7637 20.3559 18.7998C20.5246 18.836 20.684 18.9058 20.8244 19.005C20.9767 19.1483 21.1805 19.2259 21.3908 19.2209C21.6011 19.2159 21.8008 19.1286 21.9459 18.9782C22.091 18.8278 22.1697 18.6266 22.1646 18.419C22.1595 18.2113 22.071 18.0142 21.9187 17.8709C21.6561 17.6391 21.3475 17.4639 21.0124 17.3565V17.0209C21.0124 16.8133 20.9289 16.6142 20.7802 16.4673C20.6315 16.3205 20.4298 16.238 20.2195 16.238C20.0092 16.238 19.8075 16.3205 19.6588 16.4673C19.5101 16.6142 19.4265 16.8133 19.4265 17.0209V17.3005L19.354 17.3207C19.0455 17.4185 18.771 17.5999 18.5618 17.8444C18.3527 18.0888 18.2174 18.3863 18.1714 18.703C18.1266 18.9233 18.127 19.1502 18.1725 19.3704C18.2181 19.5905 18.3078 19.7994 18.4364 19.9847C18.663 20.3024 19.1456 20.714 20.0971 20.8616C20.2972 20.8688 20.4892 20.9411 20.6431 21.0674C20.6623 21.1225 20.6623 21.1823 20.6431 21.2374C20.6069 21.394 20.5548 21.4186 20.4732 21.4409C20.064 21.4881 19.652 21.3784 19.3223 21.1345C19.1798 20.9828 18.9824 20.8929 18.773 20.8844C18.5636 20.876 18.3594 20.9498 18.2049 21.0896C18.0504 21.2294 17.9583 21.4239 17.9486 21.6305C17.9389 21.8372 18.0125 22.0392 18.1532 22.1925C18.5022 22.5282 18.9329 22.7694 19.4039 22.8926V23.2841C19.4039 23.4917 19.4874 23.6909 19.6361 23.8377C19.7848 23.9845 19.9865 24.067 20.1968 24.067C20.4071 24.067 20.6088 23.9845 20.7575 23.8377C20.9062 23.6909 20.9898 23.4917 20.9898 23.2841V22.9172C21.2539 22.8239 21.4935 22.6735 21.6911 22.4771C21.8888 22.2806 22.0394 22.043 22.1322 21.7817C22.2249 21.5203 22.2573 21.2419 22.227 20.9666C22.1968 20.6913 22.1046 20.4261 21.9572 20.1905Z" fill="#E33E5A"/>
</g>
<defs>
<clipPath id="clip0_5_1670">
<rect width="36.25" height="21.25" fill="white" transform="translate(2.08325 9.58337)"/>
</clipPath>
</defs>
</svg>
