<svg id="Camada_1" data-name="Camada 1" xmlns="http://www.w3.org/2000/svg" viewBox="0 0 600 137.44"><defs><style>.cls-1{fill:#e23d5a;}.cls-2{fill:#3c2e88;}.cls-3{fill:#e8465d;}</style></defs><g id="logo"><path id="Caminho_88" data-name="Caminho 88" class="cls-1" d="M99.64,116.34a14.39,14.39,0,0,0,2.07-.13A18,18,0,0,1,99.64,116.34Z"/><g id="Grupo_89" data-name="Grupo 89"><path id="Caminho_90" data-name="Caminho 90" class="cls-2" d="M139,94.35l-13.44,20.82a30.75,30.75,0,0,1-19.49,13.5,33.59,33.59,0,0,1-3.73.57c-.41,0-.81.07-1.23.09s-1,0-1.44,0h-.2c-.49,0-1,0-1.44,0l-1.23-.09a33.59,33.59,0,0,1-3.73-.57,30.79,30.79,0,0,1-19.51-13.48L60.12,94.39,57,89.59a31,31,0,0,1,9.18-42.81l0,0,0,0L87.52,33l12,7.76L73.35,57.68A18,18,0,0,0,68,82.49L84.5,108.11a18,18,0,0,0,12.91,8.09,15.88,15.88,0,0,0,2.07.14h.13a16,16,0,0,0,2.08-.14,17.64,17.64,0,0,0,7.62-2.74Z"/><g id="Grupo_88" data-name="Grupo 88"><path id="Caminho_89" data-name="Caminho 89" class="cls-2" d="M177.87,48,161.34,22.35a31,31,0,0,0-42.87-9.29L99.54,25.27l12,7.76,14-9A18,18,0,0,1,150.4,29.4l16.51,25.65a17.94,17.94,0,0,1-5.38,24.81L139,94.37l-13.43,20.82a30.75,30.75,0,0,1-19.49,13.5,36.14,36.14,0,0,1-3.73.58,30.71,30.71,0,0,0,14-4.83l52.18-33.63A31,31,0,0,0,177.87,48v0ZM99.51,116.34a18,18,0,0,1-2.07-.13A14.39,14.39,0,0,0,99.51,116.34Z"/><path id="Caminho_91" data-name="Caminho 91" class="cls-3" d="M142.12,89.56,139,94.36l-29.71,19.13a17.74,17.74,0,0,1-7.61,2.75,18,18,0,0,0,12.9-8.12l16.53-25.63a18,18,0,0,0-5.36-24.81L99.58,40.79,87.54,33l-14-9A18,18,0,0,0,48.78,29.4L32.27,55A17.94,17.94,0,0,0,37.6,79.86h0L60.13,94.37l13.43,20.82a30.81,30.81,0,0,0,19.5,13.5,36,36,0,0,0,3.72.58,30.67,30.67,0,0,1-14-4.83L30.56,90.81A31,31,0,0,1,21.28,48h0L37.8,22.35a31,31,0,0,1,42.88-9.29L99.6,25.27l12,7.76,21.23,13.69A31,31,0,0,1,142.2,89.5v0l0,0Z"/></g></g><path id="Caminho_92" data-name="Caminho 92" class="cls-2" d="M263.63,39.61h13.79l-24.87,62.54a9,9,0,0,1-8.38,5.68h0a9.05,9.05,0,0,1-8.28-5.48l-27-62.74h14L244,92Z"/><path id="Caminho_93" data-name="Caminho 93" class="cls-2" d="M290.19,22.57a8,8,0,0,1-2.53-5.95,8.5,8.5,0,0,1,8.46-8.55h.09a8.12,8.12,0,0,1,6,2.52,8.45,8.45,0,0,1,2.47,6,8.16,8.16,0,0,1-2.47,6,8.36,8.36,0,0,1-6,2.46A8.16,8.16,0,0,1,290.19,22.57Zm-.65,85.26V39.61h13.22v68.22Z"/><path id="Caminho_94" data-name="Caminho 94" class="cls-2" d="M369.48,39.61h13.79l-24.89,62.54a9,9,0,0,1-8.38,5.68h0a9,9,0,0,1-8.28-5.48l-27-62.76H328.8l21,52.41Z"/><path id="Caminho_95" data-name="Caminho 95" class="cls-2" d="M456.66,77.75H402.89q2.64,18.94,26.63,18.92a55.23,55.23,0,0,0,15.8-2.26,48.77,48.77,0,0,0,4.8-1.82c.84-.38,2.66-1.15,2.74-1.15V104a58,58,0,0,1-25,5.45c-12.18,0-22.28-3.88-28.63-10.36A35.1,35.1,0,0,1,389.41,74a35.79,35.79,0,0,1,16.26-31.24,33,33,0,0,1,17.75-4.85,32.16,32.16,0,0,1,24.1,9.91A35.67,35.67,0,0,1,457,73.49,22.5,22.5,0,0,1,456.66,77.75Zm-53.5-11.32h41.71c-1.81-10.56-9.71-16.05-20.92-16.05S405.23,55.87,403.16,66.43Z"/><path id="Caminho_96" data-name="Caminho 96" class="cls-2" d="M466.18,97.66l6.28-10A47.21,47.21,0,0,0,484.06,95a29.69,29.69,0,0,0,12,2.33c9.65,0,15.68-3.5,15.68-9,.32-3.11-2.4-5.31-5.25-6.74a44.51,44.51,0,0,0-7.67-2.46c-1-.26-2.52-.57-4.53-1s-3.75-.84-5-1.17-2.84-.71-4.72-1.22a36.88,36.88,0,0,1-8.49-3.44,15.26,15.26,0,0,1-6-5.45,13.9,13.9,0,0,1-2.33-8.42,17.48,17.48,0,0,1,7.67-15A32.59,32.59,0,0,1,495,37.93a45,45,0,0,1,28.18,9.52L518,57.31a68,68,0,0,0-11.47-5.77,30.36,30.36,0,0,0-10.68-1.81A22.57,22.57,0,0,0,485.17,52,6.66,6.66,0,0,0,481,57.7a4.41,4.41,0,0,0,2.19,4,14.17,14.17,0,0,0,5.25,2.4c1.36.33,2.4.59,3.11.78s1.94.39,3.56.71,2.74.52,3.24.65a51.91,51.91,0,0,1,18.92,6.93,16.6,16.6,0,0,1,7.67,14.71,18.53,18.53,0,0,1-7.67,15.61,33.35,33.35,0,0,1-20.6,5.89A41.94,41.94,0,0,1,466.18,97.66Z"/><path id="Caminho_97" data-name="Caminho 97" class="cls-2" d="M533.88,19.2H547V39.61h20.36v11H547V85.16a30.25,30.25,0,0,0,.33,5.7,6.72,6.72,0,0,0,2,4.38c1.56,1.94,4.94,2.79,10.11,2.79a53.09,53.09,0,0,0,12.24-1.35v11.06a72.32,72.32,0,0,1-15.09,1.69c-7.52,0-12.7-1.74-15.94-4.72a14.64,14.64,0,0,1-4.73-6.54,24.76,24.76,0,0,1-1.75-7.39,54.87,54.87,0,0,1-.25-6.41Z"/></g></svg>