<svg width="18" height="18" viewBox="0 0 18 18" fill="none" xmlns="http://www.w3.org/2000/svg">
<g clip-path="url(#clip0_16_485)">
<path d="M13.9138 3.75H2.53448C2.26012 3.75 1.997 3.85865 1.803 4.05205C1.60899 4.24544 1.5 4.50775 1.5 4.78125V13.0312C1.5 13.3048 1.60899 13.5671 1.803 13.7605C1.997 13.9539 2.26012 14.0625 2.53448 14.0625H13.9138C14.1882 14.0625 14.4513 13.9539 14.6453 13.7605C14.8393 13.5671 14.9483 13.3048 14.9483 13.0312V10.9687H13.9138V13.0312H2.53448V4.78125H13.9138V9.9375H14.9483V4.78125C14.9483 4.50775 14.8393 4.24544 14.6453 4.05205C14.4513 3.85865 14.1882 3.75 13.9138 3.75V3.75Z" fill="#E33E5A"/>
<path d="M15.4656 6.84375H14.9483V7.875H15.4656V9.9375H10.2931V7.875H13.9138V6.84375H10.2931C10.0188 6.84375 9.75567 6.9524 9.56166 7.1458C9.36766 7.33919 9.25867 7.6015 9.25867 7.875V9.9375C9.25867 10.211 9.36766 10.4733 9.56166 10.6667C9.75567 10.8601 10.0188 10.9688 10.2931 10.9688H15.4656C15.7399 10.9688 16.003 10.8601 16.1971 10.6667C16.3911 10.4733 16.5 10.211 16.5 9.9375V7.875C16.5 7.6015 16.3911 7.33919 16.1971 7.1458C16.003 6.9524 15.7399 6.84375 15.4656 6.84375V6.84375Z" fill="#3C2E88"/>
<path d="M11.8449 9.42188C12.1305 9.42188 12.3621 9.19102 12.3621 8.90625C12.3621 8.62148 12.1305 8.39062 11.8449 8.39062C11.5592 8.39062 11.3276 8.62148 11.3276 8.90625C11.3276 9.19102 11.5592 9.42188 11.8449 9.42188Z" fill="#3C2E88"/>
</g>
<defs>
<clipPath id="clip0_16_485">
<rect width="15" height="10.3125" fill="white" transform="translate(1.5 3.75)"/>
</clipPath>
</defs>
</svg>
