<svg width="40" height="40" viewBox="0 0 40 40" fill="none" xmlns="http://www.w3.org/2000/svg">
<path d="M21.7321 36.6667H18.0289C16.0176 36.6667 14.3816 35.0307 14.3816 33.0196V7.03088C14.3816 5.01974 16.0176 3.38379 18.0289 3.38379H21.7321C23.7434 3.38379 25.3794 5.01974 25.3794 7.03088V33.0196C25.3794 35.0307 23.7434 36.6667 21.7321 36.6667ZM18.0289 5.41125C17.134 5.41125 16.4068 6.13833 16.4068 7.03321V33.0219C16.4068 33.9168 17.134 34.6439 18.0289 34.6439H21.7321C22.6271 34.6439 23.3542 33.9168 23.3542 33.0219V7.03088C23.3542 6.136 22.6271 5.40891 21.7321 5.40891H18.0289V5.41125Z" fill="#E33E5A"/>
<path d="M33.0196 25.3794H7.03088C5.01974 25.3794 3.38379 23.7434 3.38379 21.7298V18.0289C3.38379 16.0176 5.01974 14.3816 7.03088 14.3816H33.0196C35.0307 14.3816 36.6667 16.0176 36.6667 18.0289V21.7321C36.6667 23.7434 35.0307 25.3794 33.0196 25.3794ZM7.03088 16.4068C6.136 16.4068 5.40891 17.134 5.40891 18.0289V21.7321C5.40891 22.6271 6.136 23.3542 7.03088 23.3542H33.0196C33.9145 23.3542 34.6416 22.6271 34.6416 21.7321V18.0289C34.6416 17.134 33.9145 16.4068 33.0196 16.4068H7.03088Z" fill="#3C2E88"/>
<path d="M24.3665 21.0382C23.8076 21.0382 23.3535 20.5834 23.3535 20.0237V7.29244C23.3535 6.73273 23.8076 6.27795 24.3665 6.27795C24.9253 6.27795 25.3794 6.73273 25.3794 7.29244V20.0237C25.3794 20.5834 24.9253 21.0382 24.3665 21.0382Z" fill="#E33E5A"/>
<path d="M15.3945 30.2996C14.8357 30.2996 14.3816 29.8449 14.3816 29.2853V19.4478C14.3816 18.8882 14.8357 18.4335 15.3945 18.4335C15.9534 18.4335 16.4075 18.8882 16.4075 19.4478V29.2853C16.4075 29.8449 15.9534 30.2996 15.3945 30.2996Z" fill="#E33E5A"/>
</svg>
