<svg width="40" height="40" viewBox="0 0 40 40" fill="none" xmlns="http://www.w3.org/2000/svg">
<path d="M25.205 23.8423C23.4114 23.8423 21.9516 22.3825 21.9516 20.5889V12.7932C21.9516 11.7779 21.1266 10.9529 20.1114 10.9529C19.0962 10.9529 18.2712 11.7779 18.2712 12.7932V20.5889C18.2712 22.3825 16.8114 23.8423 15.0178 23.8423C13.2242 23.8423 11.7644 22.3825 11.7644 20.5889V12.7932C11.7644 8.19067 15.5089 4.44617 20.1114 4.44617C24.7139 4.44617 28.4584 8.19067 28.4584 12.7932V20.5889C28.4584 22.3825 26.9986 23.8423 25.205 23.8423ZM20.1114 9.26219C22.0564 9.26219 23.6404 10.8462 23.6404 12.7912V20.5869C23.6404 21.4507 24.3431 22.1515 25.205 22.1515C26.0688 22.1515 26.7696 21.4488 26.7696 20.5869V12.7912C26.7696 9.11854 23.7821 6.13109 20.1095 6.13109C16.4368 6.13109 13.4493 9.11854 13.4493 12.7912V20.5869C13.4493 21.4507 14.152 22.1515 15.0158 22.1515C15.8797 22.1515 16.5804 21.4488 16.5804 20.5869V12.7912C16.5824 10.8462 18.1644 9.26219 20.1114 9.26219Z" fill="#E33E5A"/>
<path d="M31.2652 35.4621H8.95539C7.58493 35.4621 6.4707 34.3479 6.4707 32.9774V18.9836C6.4707 17.6131 7.58493 16.4989 8.95539 16.4989H31.2671C32.6356 16.4989 33.7498 17.6131 33.7498 18.9836V32.9774C33.7498 34.3479 32.6356 35.4621 31.2652 35.4621ZM8.95539 18.1897C8.51669 18.1897 8.15951 18.5468 8.15951 18.9855V32.9794C8.15951 33.4181 8.51669 33.7752 8.95539 33.7752H31.2671C31.7058 33.7752 32.063 33.4181 32.063 32.9794V18.9855C32.063 18.5468 31.7058 18.1897 31.2671 18.1897H8.95539Z" fill="#3C2E88"/>
<path d="M27.6139 21.4313C27.1481 21.4313 26.7695 21.0528 26.7695 20.5869V12.7912C26.7695 12.3253 27.1481 11.9468 27.6139 11.9468C28.0798 11.9468 28.4583 12.3253 28.4583 12.7912V20.5869C28.4583 21.0547 28.0798 21.4313 27.6139 21.4313Z" fill="#E33E5A"/>
<path d="M17.4247 21.4313C16.9588 21.4313 16.5803 21.0528 16.5803 20.5869V12.7912C16.5803 12.3253 16.9588 11.9468 17.4247 11.9468C17.8906 11.9468 18.2691 12.3253 18.2691 12.7912V20.5869C18.2691 21.0547 17.8925 21.4313 17.4247 21.4313Z" fill="#E33E5A"/>
</svg>
