<svg width="40" height="40" viewBox="0 0 40 40" fill="none" xmlns="http://www.w3.org/2000/svg">
<g clip-path="url(#clip0_5_1580)">
<path d="M30.9195 8.33334H5.6321C5.02241 8.33334 4.43769 8.57478 4.00657 9.00456C3.57546 9.43433 3.33325 10.0172 3.33325 10.625V28.9583C3.33325 29.5661 3.57546 30.149 4.00657 30.5788C4.43769 31.0086 5.02241 31.25 5.6321 31.25H30.9195C31.5292 31.25 32.1139 31.0086 32.545 30.5788C32.9761 30.149 33.2183 29.5661 33.2183 28.9583V24.375H30.9195V28.9583H5.6321V10.625H30.9195V22.0833H33.2183V10.625C33.2183 10.0172 32.9761 9.43433 32.545 9.00456C32.1139 8.57478 31.5292 8.33334 30.9195 8.33334Z" fill="#E33E5A"/>
<path d="M34.3678 15.2083H33.2184V17.5H34.3678V22.0833H22.8736V17.5H30.9195V15.2083H22.8736C22.2639 15.2083 21.6791 15.4498 21.248 15.8796C20.8169 16.3093 20.5747 16.8922 20.5747 17.5V22.0833C20.5747 22.6911 20.8169 23.274 21.248 23.7038C21.6791 24.1336 22.2639 24.375 22.8736 24.375H34.3678C34.9775 24.375 35.5622 24.1336 35.9933 23.7038C36.4245 23.274 36.6667 22.6911 36.6667 22.0833V17.5C36.6667 16.8922 36.4245 16.3093 35.9933 15.8796C35.5622 15.4498 34.9775 15.2083 34.3678 15.2083Z" fill="#3C2E88"/>
<path d="M26.3218 20.9375C26.9566 20.9375 27.4712 20.4245 27.4712 19.7917C27.4712 19.1589 26.9566 18.6458 26.3218 18.6458C25.687 18.6458 25.1724 19.1589 25.1724 19.7917C25.1724 20.4245 25.687 20.9375 26.3218 20.9375Z" fill="#3C2E88"/>
</g>
<defs>
<clipPath id="clip0_5_1580">
<rect width="33.3333" height="22.9167" fill="white" transform="translate(3.33325 8.33334)"/>
</clipPath>
</defs>
</svg>
